<?xml version="1.0" encoding="UTF-8" standalone="no"?>
<!DOCTYPE svg PUBLIC "-//W3C//DTD SVG 1.1//EN"
 "http://www.w3.org/Graphics/SVG/1.1/DTD/svg11.dtd">
<!-- Generated by graphviz version 2.34.0 (20130907.0228)
 -->
<!-- Title: %3 Pages: 1 -->
<svg width="463pt" height="564pt"
 viewBox="0.00 0.00 463.00 564.00" xmlns="http://www.w3.org/2000/svg" xmlns:xlink="http://www.w3.org/1999/xlink">
<g id="graph0" class="graph" transform="scale(1 1) rotate(0) translate(4 560)">
<title>%3</title>
<polygon fill="white" stroke="white" points="-4,4 -4,-560 459,-560 459,4 -4,4"/>
<!-- org_liveSense_scripting_jsp_taglib_jstl -->
<g id="node1" class="node"><title>org_liveSense_scripting_jsp_taglib_jstl</title>
<polygon fill="yellow" stroke="black" points="132.5,-519 132.5,-555 331.5,-555 331.5,-519 132.5,-519"/>
<text text-anchor="middle" x="232" y="-544.1" font-family="Arial" font-size="8.00">liveSense :: Scripting :: JSP Standard Tag Library</text>
<polyline fill="none" stroke="black" points="132.5,-537 331.5,-537 "/>
<text text-anchor="middle" x="232" y="-526.1" font-family="Arial" font-size="8.00">org.liveSense.scripting.jsp.taglib.jstl(2&#45;SNAPSHOT)</text>
</g>
<!-- org_ops4j_pax_web_pax_web_jsp -->
<g id="node2" class="node"><title>org_ops4j_pax_web_pax_web_jsp</title>
<polygon fill="green" stroke="black" points="43.5,-445 43.5,-481 206.5,-481 206.5,-445 43.5,-445"/>
<text text-anchor="middle" x="125" y="-470.1" font-family="Arial" font-size="8.00">OPS4J Pax Web &#45; Jsp Support</text>
<polyline fill="none" stroke="black" points="43.5,-463 206.5,-463 "/>
<text text-anchor="middle" x="125" y="-452.1" font-family="Arial" font-size="8.00">org.ops4j.pax.web.pax&#45;web&#45;jsp(3.0.0.M3)</text>
</g>
<!-- org_liveSense_scripting_jsp_taglib_jstl&#45;&gt;org_ops4j_pax_web_pax_web_jsp -->
<g id="edge1" class="edge"><title>org_liveSense_scripting_jsp_taglib_jstl&#45;&gt;org_ops4j_pax_web_pax_web_jsp</title>
<path fill="none" stroke="yellow" d="M206.642,-518.937C192.355,-509.323 174.325,-497.19 158.844,-486.774"/>
<polygon fill="yellow" stroke="yellow" points="160.797,-483.869 150.546,-481.19 156.889,-489.677 160.797,-483.869"/>
</g>
<!-- org_apache_geronimo_specs_geronimo_servlet_3_0_spec -->
<g id="node3" class="node"><title>org_apache_geronimo_specs_geronimo_servlet_3_0_spec</title>
<polygon fill="green" stroke="black" points="225,-445 225,-481 455,-481 455,-445 225,-445"/>
<text text-anchor="middle" x="340" y="-470.1" font-family="Arial" font-size="8.00">Servlet 3.0</text>
<polyline fill="none" stroke="black" points="225,-463 455,-463 "/>
<text text-anchor="middle" x="340" y="-452.1" font-family="Arial" font-size="8.00">org.apache.geronimo.specs.geronimo&#45;servlet_3.0_spec(1.0)</text>
</g>
<!-- org_liveSense_scripting_jsp_taglib_jstl&#45;&gt;org_apache_geronimo_specs_geronimo_servlet_3_0_spec -->
<g id="edge2" class="edge"><title>org_liveSense_scripting_jsp_taglib_jstl&#45;&gt;org_apache_geronimo_specs_geronimo_servlet_3_0_spec</title>
<path fill="none" stroke="yellow" d="M257.594,-518.937C272.015,-509.323 290.214,-497.19 305.839,-486.774"/>
<polygon fill="yellow" stroke="yellow" points="307.836,-489.649 314.215,-481.19 303.953,-483.825 307.836,-489.649"/>
</g>
<!-- org_ops4j_pax_web_pax_web_jsp&#45;&gt;org_apache_geronimo_specs_geronimo_servlet_3_0_spec -->
<g id="edge4" class="edge"><title>org_ops4j_pax_web_pax_web_jsp&#45;&gt;org_apache_geronimo_specs_geronimo_servlet_3_0_spec</title>
<path fill="none" stroke="green" d="M206.885,-463C209.501,-463 212.117,-463 214.733,-463"/>
<polygon fill="green" stroke="green" points="214.824,-466.5 224.824,-463 214.824,-459.5 214.824,-466.5"/>
</g>
<!-- org_ops4j_pax_logging_pax_logging_api -->
<g id="node4" class="node"><title>org_ops4j_pax_logging_pax_logging_api</title>
<polygon fill="#3182bd" stroke="black" points="124.5,-149 124.5,-185 297.5,-185 297.5,-149 124.5,-149"/>
<text text-anchor="middle" x="211" y="-174.1" font-family="Arial" font-size="8.00">OPS4J Pax Logging &#45; API</text>
<polyline fill="none" stroke="black" points="124.5,-167 297.5,-167 "/>
<text text-anchor="middle" x="211" y="-156.1" font-family="Arial" font-size="8.00">org.ops4j.pax.logging.pax&#45;logging&#45;api(1.7.0)</text>
</g>
<!-- org_ops4j_pax_web_pax_web_jsp&#45;&gt;org_ops4j_pax_logging_pax_logging_api -->
<g id="edge3" class="edge"><title>org_ops4j_pax_web_pax_web_jsp&#45;&gt;org_ops4j_pax_logging_pax_logging_api</title>
<path fill="none" stroke="green" d="M111.765,-444.707C90.0989,-414.16 51.5186,-348.882 73,-296 91.9096,-249.449 137.887,-212.641 171.596,-190.666"/>
<polygon fill="green" stroke="green" points="173.744,-193.448 180.311,-185.134 169.993,-187.538 173.744,-193.448"/>
</g>
<!-- org_ops4j_pax_web_pax_web_api -->
<g id="node5" class="node"><title>org_ops4j_pax_web_pax_web_api</title>
<polygon fill="#3182bd" stroke="black" points="200,-371 200,-407 364,-407 364,-371 200,-371"/>
<text text-anchor="middle" x="282" y="-396.1" font-family="Arial" font-size="8.00">OPS4J Pax Web &#45; API</text>
<polyline fill="none" stroke="black" points="200,-389 364,-389 "/>
<text text-anchor="middle" x="282" y="-378.1" font-family="Arial" font-size="8.00">org.ops4j.pax.web.pax&#45;web&#45;api(3.0.0.M3)</text>
</g>
<!-- org_ops4j_pax_web_pax_web_jsp&#45;&gt;org_ops4j_pax_web_pax_web_api -->
<g id="edge5" class="edge"><title>org_ops4j_pax_web_pax_web_jsp&#45;&gt;org_ops4j_pax_web_pax_web_api</title>
<path fill="none" stroke="green" d="M162.207,-444.937C184.124,-434.886 212.044,-422.082 235.415,-411.364"/>
<polygon fill="green" stroke="green" points="237.158,-414.415 244.789,-407.065 234.24,-408.052 237.158,-414.415"/>
</g>
<!-- org_ops4j_pax_web_pax_web_runtime -->
<g id="node6" class="node"><title>org_ops4j_pax_web_pax_web_runtime</title>
<polygon fill="#3182bd" stroke="black" points="82,-297 82,-333 262,-333 262,-297 82,-297"/>
<text text-anchor="middle" x="172" y="-322.1" font-family="Arial" font-size="8.00">OPS4J Pax Web &#45; Runtime</text>
<polyline fill="none" stroke="black" points="82,-315 262,-315 "/>
<text text-anchor="middle" x="172" y="-304.1" font-family="Arial" font-size="8.00">org.ops4j.pax.web.pax&#45;web&#45;runtime(3.0.0.M3)</text>
</g>
<!-- org_ops4j_pax_web_pax_web_jsp&#45;&gt;org_ops4j_pax_web_pax_web_runtime -->
<g id="edge6" class="edge"><title>org_ops4j_pax_web_pax_web_jsp&#45;&gt;org_ops4j_pax_web_pax_web_runtime</title>
<path fill="none" stroke="green" d="M125.959,-444.966C131.397,-419.826 146.335,-372.554 158.024,-342.756"/>
<polygon fill="green" stroke="green" points="161.313,-343.959 161.845,-333.378 154.831,-341.318 161.313,-343.959"/>
</g>
<!-- org_apache_felix_eventadmin -->
<g id="node7" class="node"><title>org_apache_felix_eventadmin</title>
<polygon fill="#9ecae1" stroke="black" points="44,-75 44,-111 184,-111 184,-75 44,-75"/>
<text text-anchor="middle" x="114" y="-100.1" font-family="Arial" font-size="8.00">Apache Felix EventAdmin</text>
<polyline fill="none" stroke="black" points="44,-93 184,-93 "/>
<text text-anchor="middle" x="114" y="-82.1" font-family="Arial" font-size="8.00">org.apache.felix.eventadmin(1.3.2)</text>
</g>
<!-- org_ops4j_pax_logging_pax_logging_api&#45;&gt;org_apache_felix_eventadmin -->
<g id="edge7" class="edge"><title>org_ops4j_pax_logging_pax_logging_api&#45;&gt;org_apache_felix_eventadmin</title>
<path fill="none" stroke="#3182bd" d="M182.172,-148.937C168.588,-139.59 152.607,-127.863 139.472,-117.646"/>
<polygon fill="#3182bd" stroke="#3182bd" points="141.321,-114.645 131.305,-111.19 136.98,-120.137 141.321,-114.645"/>
</g>
<!-- org_ops4j_pax_web_pax_web_api&#45;&gt;org_apache_geronimo_specs_geronimo_servlet_3_0_spec -->
<g id="edge9" class="edge"><title>org_ops4j_pax_web_pax_web_api&#45;&gt;org_apache_geronimo_specs_geronimo_servlet_3_0_spec</title>
<path fill="none" stroke="#3182bd" d="M296.049,-407.441C303.216,-416.337 312.059,-427.315 319.93,-437.086"/>
<polygon fill="#3182bd" stroke="#3182bd" points="317.256,-439.345 326.255,-444.937 322.707,-434.954 317.256,-439.345"/>
</g>
<!-- org_ops4j_pax_web_pax_web_api&#45;&gt;org_ops4j_pax_logging_pax_logging_api -->
<g id="edge8" class="edge"><title>org_ops4j_pax_web_pax_web_api&#45;&gt;org_ops4j_pax_logging_pax_logging_api</title>
<path fill="none" stroke="#3182bd" d="M296.262,-370.918C320.838,-339.289 365.624,-270.421 334,-222 324.619,-207.636 310.473,-197.068 295.075,-189.301"/>
<polygon fill="#3182bd" stroke="#3182bd" points="296.435,-186.074 285.891,-185.044 293.492,-192.425 296.435,-186.074"/>
</g>
<!-- org_ops4j_pax_web_pax_web_api&#45;&gt;org_ops4j_pax_web_pax_web_runtime -->
<g id="edge10" class="edge"><title>org_ops4j_pax_web_pax_web_api&#45;&gt;org_ops4j_pax_web_pax_web_runtime</title>
<path fill="none" stroke="#3182bd" d="M250.092,-370.937C234.529,-361.412 216.031,-349.415 200.889,-339.063"/>
<polygon fill="#3182bd" stroke="#3182bd" points="202.623,-336.007 192.409,-333.19 198.637,-341.761 202.623,-336.007"/>
</g>
<!-- org_ops4j_pax_web_pax_web_runtime&#45;&gt;org_ops4j_pax_web_pax_web_jsp -->
<g id="edge20" class="edge"><title>org_ops4j_pax_web_pax_web_runtime&#45;&gt;org_ops4j_pax_web_pax_web_jsp</title>
<path fill="none" stroke="#9ecae1" d="M170.966,-333.378C165.442,-358.718 150.476,-406.011 138.817,-435.649"/>
<polygon fill="#9ecae1" stroke="#9ecae1" points="135.552,-434.385 135.008,-444.966 142.032,-437.034 135.552,-434.385"/>
</g>
<!-- org_ops4j_pax_web_pax_web_runtime&#45;&gt;org_apache_geronimo_specs_geronimo_servlet_3_0_spec -->
<g id="edge14" class="edge"><title>org_ops4j_pax_web_pax_web_runtime&#45;&gt;org_apache_geronimo_specs_geronimo_servlet_3_0_spec</title>
<path fill="none" stroke="#9ecae1" d="M170.849,-333.074C170.431,-353.344 172.856,-387.035 191,-408 203.649,-422.616 220.578,-433.277 238.483,-441.053"/>
<polygon fill="#9ecae1" stroke="#9ecae1" points="237.335,-444.364 247.918,-444.862 239.956,-437.873 237.335,-444.364"/>
</g>
<!-- org_ops4j_pax_web_pax_web_runtime&#45;&gt;org_ops4j_pax_logging_pax_logging_api -->
<g id="edge19" class="edge"><title>org_ops4j_pax_web_pax_web_runtime&#45;&gt;org_ops4j_pax_logging_pax_logging_api</title>
<path fill="none" stroke="#9ecae1" d="M162.433,-296.743C153.257,-277.76 142.26,-246.674 153,-222 158.062,-210.371 167,-200.114 176.365,-191.75"/>
<polygon fill="#9ecae1" stroke="#9ecae1" points="178.81,-194.269 184.257,-185.181 174.332,-188.889 178.81,-194.269"/>
</g>
<!-- org_ops4j_pax_web_pax_web_runtime&#45;&gt;org_ops4j_pax_web_pax_web_api -->
<g id="edge17" class="edge"><title>org_ops4j_pax_web_pax_web_runtime&#45;&gt;org_ops4j_pax_web_pax_web_api</title>
<path fill="none" stroke="#9ecae1" d="M204.116,-333.19C219.704,-342.737 238.2,-354.738 253.312,-365.074"/>
<polygon fill="#9ecae1" stroke="#9ecae1" points="251.559,-368.117 261.771,-370.937 255.546,-362.364 251.559,-368.117"/>
</g>
<!-- org_ops4j_pax_web_pax_web_runtime&#45;&gt;org_apache_felix_eventadmin -->
<g id="edge16" class="edge"><title>org_ops4j_pax_web_pax_web_runtime&#45;&gt;org_apache_felix_eventadmin</title>
<path fill="none" stroke="#9ecae1" d="M161.247,-296.61C147.205,-272.736 123.422,-227.977 115,-186 110.692,-164.53 110.711,-139.671 111.659,-121.21"/>
<polygon fill="#9ecae1" stroke="#9ecae1" points="115.156,-121.356 112.298,-111.154 108.17,-120.912 115.156,-121.356"/>
</g>
<!-- org_apache_felix_configadmin -->
<g id="node8" class="node"><title>org_apache_felix_configadmin</title>
<polygon fill="#deebf7" stroke="black" points="0,-1 0,-37 166,-37 166,-1 0,-1"/>
<text text-anchor="middle" x="83" y="-26.1" font-family="Arial" font-size="8.00">Apache Felix Configuration Admin Service</text>
<polyline fill="none" stroke="black" points="0,-19 166,-19 "/>
<text text-anchor="middle" x="83" y="-8.1" font-family="Arial" font-size="8.00">org.apache.felix.configadmin(1.6.0)</text>
</g>
<!-- org_ops4j_pax_web_pax_web_runtime&#45;&gt;org_apache_felix_configadmin -->
<g id="edge15" class="edge"><title>org_ops4j_pax_web_pax_web_runtime&#45;&gt;org_apache_felix_configadmin</title>
<path fill="none" stroke="#9ecae1" d="M154.35,-296.904C122.399,-264.489 56.309,-190.299 35,-112 30.565,-95.7038 28.998,-89.7864 35,-74 39.1637,-63.0486 46.6792,-52.8998 54.5462,-44.426"/>
<polygon fill="#9ecae1" stroke="#9ecae1" points="57.2196,-46.7011 61.7838,-37.1398 52.2533,-41.7679 57.2196,-46.7011"/>
</g>
<!-- org_ops4j_pax_web_pax_web_spi -->
<g id="node10" class="node"><title>org_ops4j_pax_web_pax_web_spi</title>
<polygon fill="#deebf7" stroke="black" points="162.5,-223 162.5,-259 325.5,-259 325.5,-223 162.5,-223"/>
<text text-anchor="middle" x="244" y="-248.1" font-family="Arial" font-size="8.00">OPS4J Pax Web &#45; Service SPI</text>
<polyline fill="none" stroke="black" points="162.5,-241 325.5,-241 "/>
<text text-anchor="middle" x="244" y="-230.1" font-family="Arial" font-size="8.00">org.ops4j.pax.web.pax&#45;web&#45;spi(3.0.0.M3)</text>
</g>
<!-- org_ops4j_pax_web_pax_web_runtime&#45;&gt;org_ops4j_pax_web_pax_web_spi -->
<g id="edge18" class="edge"><title>org_ops4j_pax_web_pax_web_runtime&#45;&gt;org_ops4j_pax_web_pax_web_spi</title>
<path fill="none" stroke="#9ecae1" d="M183.223,-296.937C191.419,-287.768 202.686,-276.308 213.35,-266.231"/>
<polygon fill="#9ecae1" stroke="#9ecae1" points="215.996,-268.552 220.957,-259.19 211.241,-263.415 215.996,-268.552"/>
</g>
<!-- org_apache_felix_eventadmin&#45;&gt;org_ops4j_pax_logging_pax_logging_api -->
<g id="edge11" class="edge"><title>org_apache_felix_eventadmin&#45;&gt;org_ops4j_pax_logging_pax_logging_api</title>
<path fill="none" stroke="#9ecae1" d="M143.012,-111.19C156.618,-120.558 172.597,-132.29 185.706,-142.493"/>
<polygon fill="#9ecae1" stroke="#9ecae1" points="183.838,-145.478 193.852,-148.937 188.181,-139.988 183.838,-145.478"/>
</g>
<!-- org_apache_felix_eventadmin&#45;&gt;org_apache_felix_configadmin -->
<g id="edge12" class="edge"><title>org_apache_felix_eventadmin&#45;&gt;org_apache_felix_configadmin</title>
<path fill="none" stroke="#9ecae1" d="M106.653,-74.937C103.039,-66.5421 98.5975,-56.2266 94.5432,-46.81"/>
<polygon fill="#9ecae1" stroke="#9ecae1" points="97.6785,-45.2414 90.5092,-37.4407 91.2491,-48.0096 97.6785,-45.2414"/>
</g>
<!-- org_apache_felix_metatype -->
<g id="node9" class="node"><title>org_apache_felix_metatype</title>
<polygon fill="#deebf7" stroke="black" points="184.5,-1 184.5,-37 315.5,-37 315.5,-1 184.5,-1"/>
<text text-anchor="middle" x="250" y="-26.1" font-family="Arial" font-size="8.00">Apache Felix Metatype Service</text>
<polyline fill="none" stroke="black" points="184.5,-19 315.5,-19 "/>
<text text-anchor="middle" x="250" y="-8.1" font-family="Arial" font-size="8.00">org.apache.felix.metatype(1.0.6)</text>
</g>
<!-- org_apache_felix_eventadmin&#45;&gt;org_apache_felix_metatype -->
<g id="edge13" class="edge"><title>org_apache_felix_eventadmin&#45;&gt;org_apache_felix_metatype</title>
<path fill="none" stroke="#9ecae1" d="M146.23,-74.937C164.894,-65.0561 188.584,-52.5144 208.615,-41.9097"/>
<polygon fill="#9ecae1" stroke="#9ecae1" points="210.33,-44.9622 217.53,-37.19 207.054,-38.7757 210.33,-44.9622"/>
</g>
<!-- org_apache_felix_configadmin&#45;&gt;org_ops4j_pax_logging_pax_logging_api -->
<g id="edge21" class="edge"><title>org_apache_felix_configadmin&#45;&gt;org_ops4j_pax_logging_pax_logging_api</title>
<path fill="none" stroke="#deebf7" d="M141.631,-37.0305C160.641,-45.2991 180.125,-57.1978 193,-74 207.115,-92.421 211.091,-118.864 211.843,-138.678"/>
<polygon fill="#deebf7" stroke="#deebf7" points="208.346,-138.955 211.973,-148.91 215.345,-138.866 208.346,-138.955"/>
</g>
<!-- org_apache_felix_metatype&#45;&gt;org_ops4j_pax_logging_pax_logging_api -->
<g id="edge22" class="edge"><title>org_apache_felix_metatype&#45;&gt;org_ops4j_pax_logging_pax_logging_api</title>
<path fill="none" stroke="#deebf7" d="M245.569,-37.3169C240.813,-55.8258 232.997,-86.0196 226,-112 223.599,-120.914 220.918,-130.637 218.494,-139.346"/>
<polygon fill="#deebf7" stroke="#deebf7" points="215.118,-138.421 215.798,-148.994 221.86,-140.305 215.118,-138.421"/>
</g>
<!-- org_ops4j_pax_web_pax_web_spi&#45;&gt;org_apache_geronimo_specs_geronimo_servlet_3_0_spec -->
<g id="edge24" class="edge"><title>org_ops4j_pax_web_pax_web_spi&#45;&gt;org_apache_geronimo_specs_geronimo_servlet_3_0_spec</title>
<path fill="none" stroke="#deebf7" d="M271.189,-259.057C302.553,-280.525 352.439,-320.633 373,-370 382.195,-392.077 371.264,-417.73 359.58,-436.33"/>
<polygon fill="#deebf7" stroke="#deebf7" points="356.53,-434.593 353.868,-444.848 362.344,-438.491 356.53,-434.593"/>
</g>
<!-- org_ops4j_pax_web_pax_web_spi&#45;&gt;org_ops4j_pax_logging_pax_logging_api -->
<g id="edge23" class="edge"><title>org_ops4j_pax_web_pax_web_spi&#45;&gt;org_ops4j_pax_logging_pax_logging_api</title>
<path fill="none" stroke="#deebf7" d="M236.179,-222.937C232.332,-214.542 227.604,-204.227 223.288,-194.81"/>
<polygon fill="#deebf7" stroke="#deebf7" points="226.342,-193.073 218.994,-185.441 219.979,-195.99 226.342,-193.073"/>
</g>
<!-- org_ops4j_pax_web_pax_web_spi&#45;&gt;org_ops4j_pax_web_pax_web_api -->
<g id="edge25" class="edge"><title>org_ops4j_pax_web_pax_web_spi&#45;&gt;org_ops4j_pax_web_pax_web_api</title>
<path fill="none" stroke="#deebf7" d="M254.61,-259.362C260.397,-269.649 267.147,-283.149 271,-296 277.334,-317.124 280.039,-342.007 281.185,-360.565"/>
<polygon fill="#deebf7" stroke="#deebf7" points="277.696,-360.874 281.695,-370.685 284.687,-360.522 277.696,-360.874"/>
</g>
<!-- org_ops4j_pax_web_pax_web_spi&#45;&gt;org_ops4j_pax_web_pax_web_runtime -->
<g id="edge26" class="edge"><title>org_ops4j_pax_web_pax_web_spi&#45;&gt;org_ops4j_pax_web_pax_web_runtime</title>
<path fill="none" stroke="#deebf7" d="M232.439,-259.441C224.22,-268.604 213.024,-279.976 202.445,-289.962"/>
<polygon fill="#deebf7" stroke="#deebf7" points="199.868,-287.578 194.903,-296.937 204.621,-292.717 199.868,-287.578"/>
</g>
</g>
</svg>
