<?xml version="1.0" encoding="UTF-8" standalone="no"?>
<!DOCTYPE svg PUBLIC "-//W3C//DTD SVG 1.1//EN"
 "http://www.w3.org/Graphics/SVG/1.1/DTD/svg11.dtd">
<!-- Generated by graphviz version 2.28.0 (20110509.1545)
 -->
<!-- Title: _anonymous_0 Pages: 1 -->
<svg width="1014pt" height="712pt"
 viewBox="0.00 0.00 1013.71 712.00" xmlns="http://www.w3.org/2000/svg" xmlns:xlink="http://www.w3.org/1999/xlink">
<g id="graph1" class="graph" transform="scale(1 1) rotate(0) translate(4 708)">
<title>_anonymous_0</title>
<polygon fill="white" stroke="white" points="-4,5 -4,-708 1010.71,-708 1010.71,5 -4,5"/>
<!-- org_liveSense_scripting_jsp_taglib_jstl -->
<g id="node1" class="node"><title>org_liveSense_scripting_jsp_taglib_jstl</title>
<polygon fill="yellow" stroke="black" points="485.344,-667 485.344,-703 684.075,-703 684.075,-667 485.344,-667"/>
<text text-anchor="middle" x="584.709" y="-691" font-family="Arial" font-size="8.00">liveSense :: Scripting :: JSP Standard Tag Library</text>
<polyline fill="none" stroke="black" points="485.344,-685.801 684.075,-685.801 "/>
<text text-anchor="middle" x="584.709" y="-673.301" font-family="Arial" font-size="8.00">org.liveSense.scripting.jsp.taglib.jstl(2&#45;SNAPSHOT)</text>
</g>
<!-- org_apache_felix_http_jetty -->
<g id="node2" class="node"><title>org_apache_felix_http_jetty</title>
<polygon fill="green" stroke="black" points="741.678,-593 741.678,-629 869.741,-629 869.741,-593 741.678,-593"/>
<text text-anchor="middle" x="805.709" y="-617" font-family="Arial" font-size="8.00">Apache Felix Http Jetty</text>
<polyline fill="none" stroke="black" points="741.678,-611.801 869.741,-611.801 "/>
<text text-anchor="middle" x="805.709" y="-599.301" font-family="Arial" font-size="8.00">org.apache.felix.http.jetty(2.2.0)</text>
</g>
<!-- org_liveSense_scripting_jsp_taglib_jstl&#45;&gt;org_apache_felix_http_jetty -->
<g id="edge2" class="edge"><title>org_liveSense_scripting_jsp_taglib_jstl&#45;&gt;org_apache_felix_http_jetty</title>
<path fill="none" stroke="yellow" d="M637.083,-666.937C669.031,-656.529 710.041,-643.168 743.618,-632.229"/>
<polygon fill="yellow" stroke="yellow" points="744.905,-635.491 753.329,-629.065 742.736,-628.835 744.905,-635.491"/>
</g>
<!-- org_apache_sling_scripting_jsp -->
<g id="node3" class="node"><title>org_apache_sling_scripting_jsp</title>
<polygon fill="green" stroke="black" points="241.34,-593 241.34,-629 388.078,-629 388.078,-593 241.34,-593"/>
<text text-anchor="middle" x="314.709" y="-617" font-family="Arial" font-size="8.00">Apache Sling Scripting JSP Support</text>
<polyline fill="none" stroke="black" points="241.34,-611.801 388.078,-611.801 "/>
<text text-anchor="middle" x="314.709" y="-599.301" font-family="Arial" font-size="8.00">org.apache.sling.scripting.jsp(2.0.24)</text>
</g>
<!-- org_liveSense_scripting_jsp_taglib_jstl&#45;&gt;org_apache_sling_scripting_jsp -->
<g id="edge4" class="edge"><title>org_liveSense_scripting_jsp_taglib_jstl&#45;&gt;org_apache_sling_scripting_jsp</title>
<path fill="none" stroke="yellow" d="M520.723,-666.937C481.022,-656.35 429.865,-642.708 388.462,-631.667"/>
<polygon fill="yellow" stroke="yellow" points="389.268,-628.26 378.704,-629.065 387.464,-635.024 389.268,-628.26"/>
</g>
<!-- org_apache_sling_commons_logservice -->
<g id="node4" class="node"><title>org_apache_sling_commons_logservice</title>
<polygon fill="#3182bd" stroke="black" points="505.664,-371 505.664,-407 689.754,-407 689.754,-371 505.664,-371"/>
<text text-anchor="middle" x="597.709" y="-395" font-family="Arial" font-size="8.00">Apache Sling OSGi LogService Implementation</text>
<polyline fill="none" stroke="black" points="505.664,-389.801 689.754,-389.801 "/>
<text text-anchor="middle" x="597.709" y="-377.301" font-family="Arial" font-size="8.00">org.apache.sling.commons.logservice(1.0.0)</text>
</g>
<!-- org_apache_felix_http_jetty&#45;&gt;org_apache_sling_commons_logservice -->
<g id="edge6" class="edge"><title>org_apache_felix_http_jetty&#45;&gt;org_apache_sling_commons_logservice</title>
<path fill="none" stroke="green" d="M801.419,-592.945C792.13,-559.477 766.997,-484.907 718.709,-444 702.343,-430.135 681.847,-419.207 662.4,-410.915"/>
<polygon fill="green" stroke="green" points="663.542,-407.6 652.961,-407.055 660.892,-414.079 663.542,-407.6"/>
</g>
<!-- slf4j_api -->
<g id="node5" class="node"><title>slf4j_api</title>
<polygon fill="#3182bd" stroke="black" points="705.586,-297 705.586,-333 771.832,-333 771.832,-297 705.586,-297"/>
<text text-anchor="middle" x="738.709" y="-321" font-family="Arial" font-size="8.00">slf4j&#45;api</text>
<polyline fill="none" stroke="black" points="705.586,-315.801 771.832,-315.801 "/>
<text text-anchor="middle" x="738.709" y="-303.301" font-family="Arial" font-size="8.00">slf4j.api(1.6.1)</text>
</g>
<!-- org_apache_felix_http_jetty&#45;&gt;slf4j_api -->
<g id="edge8" class="edge"><title>org_apache_felix_http_jetty&#45;&gt;slf4j_api</title>
<path fill="none" stroke="green" d="M804.708,-592.916C803.421,-574.348 800.728,-543.866 795.709,-518 783.338,-454.24 760.562,-381.342 747.867,-342.94"/>
<polygon fill="green" stroke="green" points="751.055,-341.438 744.571,-333.06 744.415,-343.654 751.055,-341.438"/>
</g>
<!-- org_apache_felix_configadmin -->
<g id="node6" class="node"><title>org_apache_felix_configadmin</title>
<polygon fill="#3182bd" stroke="black" points="545.004,-445 545.004,-481 710.414,-481 710.414,-445 545.004,-445"/>
<text text-anchor="middle" x="627.709" y="-469" font-family="Arial" font-size="8.00">Apache Felix Configuration Admin Service</text>
<polyline fill="none" stroke="black" points="545.004,-463.801 710.414,-463.801 "/>
<text text-anchor="middle" x="627.709" y="-451.301" font-family="Arial" font-size="8.00">org.apache.felix.configadmin(1.2.8)</text>
</g>
<!-- org_apache_felix_http_jetty&#45;&gt;org_apache_felix_configadmin -->
<g id="edge10" class="edge"><title>org_apache_felix_http_jetty&#45;&gt;org_apache_felix_configadmin</title>
<path fill="none" stroke="green" d="M741.296,-605.383C705.991,-599.344 664.491,-585.844 639.709,-556 624.881,-538.143 622.944,-511.239 624.084,-491.131"/>
<polygon fill="green" stroke="green" points="627.582,-491.3 624.94,-481.04 620.607,-490.708 627.582,-491.3"/>
</g>
<!-- org_apache_sling_scripting_jsp&#45;&gt;org_apache_felix_http_jetty -->
<g id="edge44" class="edge"><title>org_apache_sling_scripting_jsp&#45;&gt;org_apache_felix_http_jetty</title>
<path fill="none" stroke="#bdbdbd" d="M388.551,-611C502.703,-611 616.855,-611 731.007,-611"/>
<polygon fill="#bdbdbd" stroke="#bdbdbd" points="731.343,-614.5 741.343,-611 731.343,-607.5 731.343,-614.5"/>
</g>
<!-- org_apache_sling_scripting_jsp&#45;&gt;slf4j_api -->
<g id="edge48" class="edge"><title>org_apache_sling_scripting_jsp&#45;&gt;slf4j_api</title>
<path fill="none" stroke="#bdbdbd" d="M299.24,-592.81C291.134,-582.791 281.849,-569.499 276.709,-556 247.173,-478.421 204.397,-431.898 259.709,-370 288.509,-337.772 582.757,-322.393 695.278,-317.657"/>
<polygon fill="#bdbdbd" stroke="#bdbdbd" points="695.738,-321.141 705.585,-317.231 695.449,-314.147 695.738,-321.141"/>
</g>
<!-- org_apache_felix_scr -->
<g id="node14" class="node"><title>org_apache_felix_scr</title>
<polygon fill="#bdbdbd" stroke="black" points="455.018,-519 455.018,-555 592.401,-555 592.401,-519 455.018,-519"/>
<text text-anchor="middle" x="523.709" y="-543" font-family="Arial" font-size="8.00">Apache Felix Declarative Services</text>
<polyline fill="none" stroke="black" points="455.018,-537.801 592.401,-537.801 "/>
<text text-anchor="middle" x="523.709" y="-525.301" font-family="Arial" font-size="8.00">org.apache.felix.scr(1.6.0)</text>
</g>
<!-- org_apache_sling_scripting_jsp&#45;&gt;org_apache_felix_scr -->
<g id="edge38" class="edge"><title>org_apache_sling_scripting_jsp&#45;&gt;org_apache_felix_scr</title>
<path fill="none" stroke="#bdbdbd" d="M364.239,-592.937C394.323,-582.573 432.903,-569.283 464.581,-558.37"/>
<polygon fill="#bdbdbd" stroke="#bdbdbd" points="465.858,-561.631 474.173,-555.065 463.578,-555.013 465.858,-561.631"/>
</g>
<!-- org_apache_sling_api -->
<g id="node15" class="node"><title>org_apache_sling_api</title>
<polygon fill="#bdbdbd" stroke="black" points="648.346,-519 648.346,-555 759.073,-555 759.073,-519 648.346,-519"/>
<text text-anchor="middle" x="703.709" y="-543" font-family="Arial" font-size="8.00">Apache Sling API</text>
<polyline fill="none" stroke="black" points="648.346,-537.801 759.073,-537.801 "/>
<text text-anchor="middle" x="703.709" y="-525.301" font-family="Arial" font-size="8.00">org.apache.sling.api(2.2.4)</text>
</g>
<!-- org_apache_sling_scripting_jsp&#45;&gt;org_apache_sling_api -->
<g id="edge40" class="edge"><title>org_apache_sling_scripting_jsp&#45;&gt;org_apache_sling_api</title>
<path fill="none" stroke="#bdbdbd" d="M388.335,-596.373C460.449,-583.025 569.292,-562.879 638.404,-550.087"/>
<polygon fill="#bdbdbd" stroke="#bdbdbd" points="639.107,-553.517 648.303,-548.255 637.833,-546.634 639.107,-553.517"/>
</g>
<!-- org_apache_sling_commons_classloader -->
<g id="node16" class="node"><title>org_apache_sling_commons_classloader</title>
<polygon fill="#bdbdbd" stroke="black" points="269.002,-371 269.002,-407 446.416,-407 446.416,-371 269.002,-371"/>
<text text-anchor="middle" x="357.709" y="-395" font-family="Arial" font-size="8.00">Apache Sling Dynamic Class Loader Support</text>
<polyline fill="none" stroke="black" points="269.002,-389.801 446.416,-389.801 "/>
<text text-anchor="middle" x="357.709" y="-377.301" font-family="Arial" font-size="8.00">org.apache.sling.commons.classloader(1.3.0)</text>
</g>
<!-- org_apache_sling_scripting_jsp&#45;&gt;org_apache_sling_commons_classloader -->
<g id="edge42" class="edge"><title>org_apache_sling_scripting_jsp&#45;&gt;org_apache_sling_commons_classloader</title>
<path fill="none" stroke="#bdbdbd" d="M301.561,-592.549C294.783,-582.448 287.218,-569.161 283.709,-556 279.358,-539.681 279.333,-534.312 283.709,-518 294.121,-479.19 319.47,-439.981 337.594,-415.374"/>
<polygon fill="#bdbdbd" stroke="#bdbdbd" points="340.451,-417.398 343.668,-407.304 334.858,-413.189 340.451,-417.398"/>
</g>
<!-- org_apache_sling_scripting_api -->
<g id="node17" class="node"><title>org_apache_sling_scripting_api</title>
<polygon fill="#bdbdbd" stroke="black" points="30.6663,-519 30.6663,-555 198.752,-555 198.752,-519 30.6663,-519"/>
<text text-anchor="middle" x="114.709" y="-543" font-family="Arial" font-size="8.00">Apache Sling Scripting Implementation API</text>
<polyline fill="none" stroke="black" points="30.6663,-537.801 198.752,-537.801 "/>
<text text-anchor="middle" x="114.709" y="-525.301" font-family="Arial" font-size="8.00">org.apache.sling.scripting.api(2.1.4)</text>
</g>
<!-- org_apache_sling_scripting_jsp&#45;&gt;org_apache_sling_scripting_api -->
<g id="edge46" class="edge"><title>org_apache_sling_scripting_jsp&#45;&gt;org_apache_sling_scripting_api</title>
<path fill="none" stroke="#bdbdbd" d="M267.312,-592.937C238.648,-582.618 201.923,-569.397 171.684,-558.511"/>
<polygon fill="#bdbdbd" stroke="#bdbdbd" points="172.707,-555.159 162.112,-555.065 170.336,-561.746 172.707,-555.159"/>
</g>
<!-- org_apache_felix_eventadmin -->
<g id="node18" class="node"><title>org_apache_felix_eventadmin</title>
<polygon fill="#bdbdbd" stroke="black" points="292.893,-519 292.893,-555 436.526,-555 436.526,-519 292.893,-519"/>
<text text-anchor="middle" x="364.709" y="-543" font-family="Arial" font-size="8.00">Apache Felix EventAdmin</text>
<polyline fill="none" stroke="black" points="292.893,-537.801 436.526,-537.801 "/>
<text text-anchor="middle" x="364.709" y="-525.301" font-family="Arial" font-size="8.00">org.apache.felix.eventadmin(1.2.14)</text>
</g>
<!-- org_apache_sling_scripting_jsp&#45;&gt;org_apache_felix_eventadmin -->
<g id="edge50" class="edge"><title>org_apache_sling_scripting_jsp&#45;&gt;org_apache_felix_eventadmin</title>
<path fill="none" stroke="#bdbdbd" d="M326.559,-592.937C332.573,-584.277 340.006,-573.573 346.709,-563.921"/>
<polygon fill="#bdbdbd" stroke="#bdbdbd" points="349.769,-565.651 352.598,-555.441 344.019,-561.658 349.769,-565.651"/>
</g>
<!-- org_apache_sling_commons_logservice&#45;&gt;slf4j_api -->
<g id="edge12" class="edge"><title>org_apache_sling_commons_logservice&#45;&gt;slf4j_api</title>
<path fill="none" stroke="#3182bd" d="M631.124,-370.937C650.704,-360.939 675.617,-348.217 696.539,-337.534"/>
<polygon fill="#3182bd" stroke="#3182bd" points="698.22,-340.605 705.534,-332.941 695.036,-334.371 698.22,-340.605"/>
</g>
<!-- ch_qos_logback_classic -->
<g id="node7" class="node"><title>ch_qos_logback_classic</title>
<polygon fill="#deebf7" stroke="black" points="681.352,-223 681.352,-259 800.067,-259 800.067,-223 681.352,-223"/>
<text text-anchor="middle" x="740.709" y="-247" font-family="Arial" font-size="8.00">Logback Classic Module</text>
<polyline fill="none" stroke="black" points="681.352,-241.801 800.067,-241.801 "/>
<text text-anchor="middle" x="740.709" y="-229.301" font-family="Arial" font-size="8.00">ch.qos.logback.classic(1.0.3)</text>
</g>
<!-- slf4j_api&#45;&gt;ch_qos_logback_classic -->
<g id="edge14" class="edge"><title>slf4j_api&#45;&gt;ch_qos_logback_classic</title>
<path fill="none" stroke="#9ecae1" d="M733.343,-296.937C732.7,-288.719 732.734,-278.66 733.372,-269.406"/>
<polygon fill="#9ecae1" stroke="#9ecae1" points="736.857,-269.734 734.345,-259.441 729.89,-269.053 736.857,-269.734"/>
</g>
<!-- org_apache_felix_configadmin&#45;&gt;org_apache_sling_commons_logservice -->
<g id="edge72" class="edge"><title>org_apache_felix_configadmin&#45;&gt;org_apache_sling_commons_logservice</title>
<path fill="none" stroke="#bdbdbd" d="M620.6,-444.937C617.102,-436.542 612.804,-426.227 608.88,-416.81"/>
<polygon fill="#bdbdbd" stroke="#bdbdbd" points="612.053,-415.325 604.976,-407.441 605.592,-418.018 612.053,-415.325"/>
</g>
<!-- ch_qos_logback_classic&#45;&gt;org_apache_felix_http_jetty -->
<g id="edge18" class="edge"><title>ch_qos_logback_classic&#45;&gt;org_apache_felix_http_jetty</title>
<path fill="none" stroke="#deebf7" d="M769.313,-259.034C805.372,-282.926 862.709,-330.029 862.709,-388 862.709,-464 862.709,-464 862.709,-464 862.709,-508.493 839.454,-555.713 822.652,-584.024"/>
<polygon fill="#deebf7" stroke="#deebf7" points="819.474,-582.511 817.244,-592.869 825.447,-586.163 819.474,-582.511"/>
</g>
<!-- ch_qos_logback_classic&#45;&gt;slf4j_api -->
<g id="edge20" class="edge"><title>ch_qos_logback_classic&#45;&gt;slf4j_api</title>
<path fill="none" stroke="#deebf7" d="M746.104,-259.441C746.721,-267.625 746.675,-277.572 746.038,-286.719"/>
<polygon fill="#deebf7" stroke="#deebf7" points="742.529,-286.64 745.023,-296.937 749.494,-287.332 742.529,-286.64"/>
</g>
<!-- ch_qos_logback_core -->
<g id="node8" class="node"><title>ch_qos_logback_core</title>
<polygon fill="#bdbdbd" stroke="black" points="874.573,-149 874.573,-185 984.846,-185 984.846,-149 874.573,-149"/>
<text text-anchor="middle" x="929.709" y="-173" font-family="Arial" font-size="8.00">Logback Core Module</text>
<polyline fill="none" stroke="black" points="874.573,-167.801 984.846,-167.801 "/>
<text text-anchor="middle" x="929.709" y="-155.301" font-family="Arial" font-size="8.00">ch.qos.logback.core(1.0.3)</text>
</g>
<!-- ch_qos_logback_classic&#45;&gt;ch_qos_logback_core -->
<g id="edge16" class="edge"><title>ch_qos_logback_classic&#45;&gt;ch_qos_logback_core</title>
<path fill="none" stroke="#deebf7" d="M785.5,-222.937C812.47,-212.663 846.992,-199.511 875.497,-188.652"/>
<polygon fill="#deebf7" stroke="#deebf7" points="876.814,-191.896 884.913,-185.065 874.322,-185.354 876.814,-191.896"/>
</g>
<!-- groovy_all -->
<g id="node9" class="node"><title>groovy_all</title>
<polygon fill="#bdbdbd" stroke="black" points="703.809,-149 703.809,-185 777.61,-185 777.61,-149 703.809,-149"/>
<text text-anchor="middle" x="740.709" y="-173" font-family="Arial" font-size="8.00">Groovy Runtime</text>
<polyline fill="none" stroke="black" points="703.809,-167.801 777.61,-167.801 "/>
<text text-anchor="middle" x="740.709" y="-155.301" font-family="Arial" font-size="8.00">groovy&#45;all(1.8.2)</text>
</g>
<!-- ch_qos_logback_classic&#45;&gt;groovy_all -->
<g id="edge22" class="edge"><title>ch_qos_logback_classic&#45;&gt;groovy_all</title>
<path fill="none" stroke="#deebf7" d="M740.709,-222.937C740.709,-214.807 740.709,-204.876 740.709,-195.705"/>
<polygon fill="#deebf7" stroke="#deebf7" points="744.209,-195.441 740.709,-185.441 737.209,-195.441 744.209,-195.441"/>
</g>
<!-- ch_qos_logback_core&#45;&gt;org_apache_felix_http_jetty -->
<g id="edge26" class="edge"><title>ch_qos_logback_core&#45;&gt;org_apache_felix_http_jetty</title>
<path fill="none" stroke="#bdbdbd" d="M931.445,-185.062C934.06,-212.292 938.709,-267.273 938.709,-314 938.709,-464 938.709,-464 938.709,-464 938.709,-519.306 885.908,-562.88 846.844,-587.549"/>
<polygon fill="#bdbdbd" stroke="#bdbdbd" points="844.942,-584.61 838.245,-592.819 848.6,-590.578 844.942,-584.61"/>
</g>
<!-- org_glassfish_javax_mail -->
<g id="node10" class="node"><title>org_glassfish_javax_mail</title>
<polygon fill="#bdbdbd" stroke="black" points="853.461,-75 853.461,-111 1005.96,-111 1005.96,-75 853.461,-75"/>
<text text-anchor="middle" x="929.709" y="-99" font-family="Arial" font-size="8.00">javax.mail API v.1.4</text>
<polyline fill="none" stroke="black" points="853.461,-93.8008 1005.96,-93.8008 "/>
<text text-anchor="middle" x="929.709" y="-81.3008" font-family="Arial" font-size="8.00">org.glassfish.javax.mail(3.0.0.Preview)</text>
</g>
<!-- ch_qos_logback_core&#45;&gt;org_glassfish_javax_mail -->
<g id="edge24" class="edge"><title>ch_qos_logback_core&#45;&gt;org_glassfish_javax_mail</title>
<path fill="none" stroke="#bdbdbd" d="M929.709,-148.937C929.709,-140.807 929.709,-130.876 929.709,-121.705"/>
<polygon fill="#bdbdbd" stroke="#bdbdbd" points="933.209,-121.441 929.709,-111.441 926.209,-121.441 933.209,-121.441"/>
</g>
<!-- groovy_all&#45;&gt;org_apache_felix_http_jetty -->
<g id="edge30" class="edge"><title>groovy_all&#45;&gt;org_apache_felix_http_jetty</title>
<path fill="none" stroke="#bdbdbd" d="M777.819,-182.473C825.084,-203.627 900.709,-247.816 900.709,-314 900.709,-464 900.709,-464 900.709,-464 900.709,-513.203 862.335,-558.837 834.365,-585.565"/>
<polygon fill="#bdbdbd" stroke="#bdbdbd" points="831.744,-583.223 826.793,-592.589 836.505,-588.355 831.744,-583.223"/>
</g>
<!-- groovy_all&#45;&gt;org_apache_sling_scripting_jsp -->
<g id="edge32" class="edge"><title>groovy_all&#45;&gt;org_apache_sling_scripting_jsp</title>
<path fill="none" stroke="#bdbdbd" d="M703.606,-167.353C553.952,-165.721 2.7093,-169.515 2.7093,-314 2.7093,-464 2.7093,-464 2.7093,-464 2.7093,-505.752 -8.1279,-526.795 21.7093,-556 50.8502,-584.524 155.24,-598.396 231.133,-604.844"/>
<polygon fill="#bdbdbd" stroke="#bdbdbd" points="230.921,-608.339 241.174,-605.669 231.494,-601.362 230.921,-608.339"/>
</g>
<!-- org_apache_servicemix_bundles_xstream -->
<g id="node11" class="node"><title>org_apache_servicemix_bundles_xstream</title>
<polygon fill="#bdbdbd" stroke="black" points="647.336,-75 647.336,-111 834.082,-111 834.082,-75 647.336,-75"/>
<text text-anchor="middle" x="740.709" y="-99" font-family="Arial" font-size="8.00">Apache ServiceMix :: Bundles :: xstream</text>
<polyline fill="none" stroke="black" points="647.336,-93.8008 834.082,-93.8008 "/>
<text text-anchor="middle" x="740.709" y="-81.3008" font-family="Arial" font-size="8.00">org.apache.servicemix.bundles.xstream(1.4.1.1)</text>
</g>
<!-- groovy_all&#45;&gt;org_apache_servicemix_bundles_xstream -->
<g id="edge28" class="edge"><title>groovy_all&#45;&gt;org_apache_servicemix_bundles_xstream</title>
<path fill="none" stroke="#bdbdbd" d="M740.709,-148.937C740.709,-140.807 740.709,-130.876 740.709,-121.705"/>
<polygon fill="#bdbdbd" stroke="#bdbdbd" points="744.209,-121.441 740.709,-111.441 737.209,-121.441 744.209,-121.441"/>
</g>
<!-- org_apache_servicemix_bundles_xpp3 -->
<g id="node12" class="node"><title>org_apache_servicemix_bundles_xpp3</title>
<polygon fill="#bdbdbd" stroke="black" points="544.438,-1 544.438,-37 732.981,-37 732.981,-1 544.438,-1"/>
<text text-anchor="middle" x="638.709" y="-25" font-family="Arial" font-size="8.00">Apache ServiceMix :: Bundles :: xpp3</text>
<polyline fill="none" stroke="black" points="544.438,-19.8008 732.981,-19.8008 "/>
<text text-anchor="middle" x="638.709" y="-7.30078" font-family="Arial" font-size="8.00">org.apache.servicemix.bundles.xpp3(1.1.0.4c_5)</text>
</g>
<!-- org_apache_servicemix_bundles_xstream&#45;&gt;org_apache_servicemix_bundles_xpp3 -->
<g id="edge34" class="edge"><title>org_apache_servicemix_bundles_xstream&#45;&gt;org_apache_servicemix_bundles_xpp3</title>
<path fill="none" stroke="#bdbdbd" d="M716.537,-74.937C703.043,-65.4122 686.047,-53.4149 671.383,-43.0635"/>
<polygon fill="#bdbdbd" stroke="#bdbdbd" points="673.25,-40.0975 663.062,-37.19 669.213,-45.8163 673.25,-40.0975"/>
</g>
<!-- org_apache_servicemix_bundles_cglib -->
<g id="node13" class="node"><title>org_apache_servicemix_bundles_cglib</title>
<polygon fill="#bdbdbd" stroke="black" points="750.885,-1 750.885,-37 934.534,-37 934.534,-1 750.885,-1"/>
<text text-anchor="middle" x="842.709" y="-25" font-family="Arial" font-size="8.00">Apache ServiceMix Bundles: cglib&#45;2.1_3</text>
<polyline fill="none" stroke="black" points="750.885,-19.8008 934.534,-19.8008 "/>
<text text-anchor="middle" x="842.709" y="-7.30078" font-family="Arial" font-size="8.00">org.apache.servicemix.bundles.cglib(2.1.0.3_4)</text>
</g>
<!-- org_apache_servicemix_bundles_xstream&#45;&gt;org_apache_servicemix_bundles_cglib -->
<g id="edge36" class="edge"><title>org_apache_servicemix_bundles_xstream&#45;&gt;org_apache_servicemix_bundles_cglib</title>
<path fill="none" stroke="#bdbdbd" d="M764.882,-74.937C778.375,-65.4122 795.372,-53.4149 810.036,-43.0635"/>
<polygon fill="#bdbdbd" stroke="#bdbdbd" points="812.205,-45.8163 818.357,-37.19 808.169,-40.0975 812.205,-45.8163"/>
</g>
<!-- org_apache_felix_scr&#45;&gt;org_apache_sling_commons_logservice -->
<g id="edge54" class="edge"><title>org_apache_felix_scr&#45;&gt;org_apache_sling_commons_logservice</title>
<path fill="none" stroke="#bdbdbd" d="M522.445,-518.97C521.768,-499.636 523.003,-467.709 535.709,-444 541.987,-432.286 551.9,-421.949 561.973,-413.538"/>
<polygon fill="#bdbdbd" stroke="#bdbdbd" points="564.319,-416.146 570.02,-407.216 559.994,-410.642 564.319,-416.146"/>
</g>
<!-- org_apache_felix_scr&#45;&gt;org_apache_felix_configadmin -->
<g id="edge56" class="edge"><title>org_apache_felix_scr&#45;&gt;org_apache_felix_configadmin</title>
<path fill="none" stroke="#bdbdbd" d="M548.356,-518.937C562.114,-509.412 579.443,-497.415 594.395,-487.063"/>
<polygon fill="#bdbdbd" stroke="#bdbdbd" points="596.65,-489.76 602.879,-481.19 592.665,-484.004 596.65,-489.76"/>
</g>
<!-- org_apache_felix_metatype -->
<g id="node19" class="node"><title>org_apache_felix_metatype</title>
<polygon fill="#bdbdbd" stroke="black" points="358.344,-445 358.344,-481 489.075,-481 489.075,-445 358.344,-445"/>
<text text-anchor="middle" x="423.709" y="-469" font-family="Arial" font-size="8.00">Apache Felix Metatype Service</text>
<polyline fill="none" stroke="black" points="358.344,-463.801 489.075,-463.801 "/>
<text text-anchor="middle" x="423.709" y="-451.301" font-family="Arial" font-size="8.00">org.apache.felix.metatype(1.0.4)</text>
</g>
<!-- org_apache_felix_scr&#45;&gt;org_apache_felix_metatype -->
<g id="edge52" class="edge"><title>org_apache_felix_scr&#45;&gt;org_apache_felix_metatype</title>
<path fill="none" stroke="#bdbdbd" d="M500.011,-518.937C486.782,-509.412 470.119,-497.415 455.742,-487.063"/>
<polygon fill="#bdbdbd" stroke="#bdbdbd" points="457.745,-484.193 447.584,-481.19 453.655,-489.873 457.745,-484.193"/>
</g>
<!-- org_apache_sling_api&#45;&gt;org_apache_felix_http_jetty -->
<g id="edge58" class="edge"><title>org_apache_sling_api&#45;&gt;org_apache_felix_http_jetty</title>
<path fill="none" stroke="#bdbdbd" d="M728.062,-555.19C741.586,-564.737 758.588,-576.738 773.231,-587.074"/>
<polygon fill="#bdbdbd" stroke="#bdbdbd" points="771.349,-590.03 781.537,-592.937 775.385,-584.311 771.349,-590.03"/>
</g>
<!-- org_apache_sling_api&#45;&gt;slf4j_api -->
<g id="edge60" class="edge"><title>org_apache_sling_api&#45;&gt;slf4j_api</title>
<path fill="none" stroke="#bdbdbd" d="M709.248,-518.65C712.423,-508.139 716.253,-494.408 718.709,-482 728.281,-433.648 733.954,-376.405 736.689,-343.339"/>
<polygon fill="#bdbdbd" stroke="#bdbdbd" points="740.2,-343.347 737.506,-333.1 733.222,-342.791 740.2,-343.347"/>
</g>
<!-- org_apache_sling_commons_classloader&#45;&gt;slf4j_api -->
<g id="edge62" class="edge"><title>org_apache_sling_commons_classloader&#45;&gt;slf4j_api</title>
<path fill="none" stroke="#bdbdbd" d="M446.556,-371.21C524.712,-356.44 635.153,-335.57 695.387,-324.187"/>
<polygon fill="#bdbdbd" stroke="#bdbdbd" points="696.144,-327.606 705.32,-322.31 694.844,-320.728 696.144,-327.606"/>
</g>
<!-- org_apache_felix_eventadmin&#45;&gt;org_apache_sling_commons_logservice -->
<g id="edge66" class="edge"><title>org_apache_felix_eventadmin&#45;&gt;org_apache_sling_commons_logservice</title>
<path fill="none" stroke="#bdbdbd" d="M354.744,-518.725C344.584,-498.57 332.55,-465.297 349.709,-444 359.304,-432.091 431.421,-417.219 495.43,-406.099"/>
<polygon fill="#bdbdbd" stroke="#bdbdbd" points="496.36,-409.49 505.622,-404.347 495.174,-402.591 496.36,-409.49"/>
</g>
<!-- org_apache_felix_eventadmin&#45;&gt;org_apache_felix_configadmin -->
<g id="edge68" class="edge"><title>org_apache_felix_eventadmin&#45;&gt;org_apache_felix_configadmin</title>
<path fill="none" stroke="#bdbdbd" d="M427.037,-518.937C465.627,-508.372 515.329,-494.766 555.613,-483.737"/>
<polygon fill="#bdbdbd" stroke="#bdbdbd" points="556.653,-487.081 565.374,-481.065 554.805,-480.33 556.653,-487.081"/>
</g>
<!-- org_apache_felix_eventadmin&#45;&gt;org_apache_felix_metatype -->
<g id="edge64" class="edge"><title>org_apache_felix_eventadmin&#45;&gt;org_apache_felix_metatype</title>
<path fill="none" stroke="#bdbdbd" d="M378.691,-518.937C385.933,-510.1 394.918,-499.135 402.952,-489.331"/>
<polygon fill="#bdbdbd" stroke="#bdbdbd" points="405.787,-491.394 409.418,-481.441 400.372,-486.957 405.787,-491.394"/>
</g>
<!-- org_apache_felix_metatype&#45;&gt;org_apache_sling_commons_logservice -->
<g id="edge70" class="edge"><title>org_apache_felix_metatype&#45;&gt;org_apache_sling_commons_logservice</title>
<path fill="none" stroke="#bdbdbd" d="M464.945,-444.937C489.559,-434.752 521.004,-421.74 547.113,-410.936"/>
<polygon fill="#bdbdbd" stroke="#bdbdbd" points="548.567,-414.123 556.469,-407.065 545.89,-407.655 548.567,-414.123"/>
</g>
</g>
</svg>
